<svg width="90" height="92" viewBox="0 0 90 92" fill="none" xmlns="http://www.w3.org/2000/svg">
<g clip-path="url(#clip0_1324_1730)">
<g clip-path="url(#clip1_1324_1730)">
<path d="M44.9867 91.3494C69.8321 91.3494 89.9733 70.9844 89.9733 45.8629C89.9733 20.7413 69.8321 0.376343 44.9867 0.376343C20.1412 0.376343 0 20.7413 0 45.8629C0 70.9844 20.1412 91.3494 44.9867 91.3494Z" fill="#E2E7EC"/>
<path d="M43.2262 36.1377V12.0228C43.2262 12.0228 35.4971 15.908 35.4971 24.1696C35.4971 32.4312 43.2262 36.1377 43.2262 36.1377Z" fill="#006E3C"/>
<path d="M43.2295 12.0228C43.2295 12.0228 50.9585 15.908 50.9585 24.1696C50.9585 32.4312 43.2295 36.1377 43.2295 36.1377V12.0228Z" fill="#00B43C"/>
<path d="M61.2004 47.4342L71.8004 41.3609C71.8004 41.3609 68.1346 38.86 64.513 40.9589C60.8913 43.0578 61.2004 47.4342 61.2004 47.4342Z" fill="#006E3C"/>
<path d="M71.8065 41.3571C71.8065 41.3571 72.0274 45.8228 68.4057 47.877C64.784 49.9759 61.2065 47.4304 61.2065 47.4304L71.8065 41.3571Z" fill="#00B43C"/>
<path d="M72.3271 40.3755C72.1505 40.2862 67.6897 37.8747 63.8914 40.1075C60.8439 41.8939 60.2697 45.4217 60.1372 46.8955L58.7238 47.6993C58.0172 47.0295 57.0897 46.5828 56.0297 46.5828C54.9697 46.5828 54.0423 46.9847 53.3355 47.6993L46.9756 43.948C47.064 43.6355 47.1081 43.3229 47.1081 43.0103C47.1081 41.224 45.9156 39.7056 44.3257 39.2591V36.9369C46.1806 35.7311 52.0989 31.3101 52.0989 24.2989C52.0989 16.1713 44.1489 11.1251 43.7957 10.9018L43.2214 10.5446L42.6473 10.9018C42.294 11.1251 34.344 16.1713 34.344 24.2989C34.344 31.3101 40.2623 35.6865 42.1173 36.9369V39.2591C40.4831 39.7056 39.3349 41.224 39.3349 43.0103C39.3349 43.3229 39.379 43.6355 39.4674 43.948L33.0632 47.6993C32.3566 47.0295 31.429 46.5828 30.369 46.5828C28.249 46.5828 26.4824 48.3245 26.4824 50.5127C26.4824 52.2989 27.6749 53.8173 29.2649 54.2639V62.0343C27.6749 62.5254 26.4824 63.9992 26.4824 65.7854C26.4824 67.929 28.2049 69.7153 30.369 69.7153C31.5174 69.7153 32.5332 69.224 33.2398 68.4202L39.4674 72.0374C39.379 72.35 39.3349 72.6627 39.3349 72.9752C39.3349 75.1188 41.0573 76.8604 43.2214 76.8604C45.3415 76.8604 47.1081 75.1188 47.1081 72.9752C47.1081 72.6627 47.064 72.35 46.9756 72.0374L53.203 68.4202C53.9098 69.224 54.9256 69.7153 56.0739 69.7153C58.1938 69.7153 59.9605 67.9736 59.9605 65.7854C59.9605 63.9992 58.7681 62.4808 57.1781 62.0343V54.2639C58.7681 53.7726 59.9605 52.2989 59.9605 50.5127C59.9605 50.2 59.9164 49.8875 59.8722 49.6195L61.2855 48.8157C62.0805 49.2176 63.7147 49.8428 65.5255 49.8428C66.6297 49.8428 67.8222 49.6195 68.9705 48.9497C72.7246 46.7615 72.9455 41.6259 72.9455 41.4473V40.7774L72.3271 40.3755ZM57.1339 51.8524C56.8247 52.0757 56.4714 52.2097 56.0739 52.2097C55.8531 52.2097 55.6764 52.165 55.4556 52.0757C55.2789 52.031 55.1464 51.9417 55.0139 51.8078C54.6606 51.5398 54.4398 51.1379 54.3514 50.6913C54.3514 50.602 54.3514 50.5127 54.3514 50.4234C54.3514 50.3341 54.3514 50.2894 54.3514 50.2001C54.4398 49.5749 54.8373 49.039 55.4114 48.8157C55.5881 48.7264 55.8089 48.6817 56.0297 48.6817C56.2506 48.6817 56.5156 48.7264 56.6922 48.8157C57.3106 49.0836 57.7522 49.7089 57.7522 50.4234C57.7522 50.5127 57.7522 50.602 57.7081 50.6913C57.6639 51.2272 57.4431 51.5845 57.1339 51.8524ZM57.7522 65.7854C57.7522 66.7679 56.9572 67.5271 56.0297 67.5271C55.7206 67.5271 55.3672 67.4377 55.1464 67.2591C54.6606 66.9465 54.3073 66.4107 54.3073 65.7854V65.7408C54.3073 65.5621 54.3514 65.3835 54.3955 65.2049C54.4839 64.8923 54.7048 64.6243 54.9697 64.4011C55.1906 64.2224 55.4556 64.0884 55.7206 64.0438C55.8089 64.0438 55.8972 63.9992 56.0297 63.9992C56.4272 63.9992 56.8247 64.1332 57.0897 64.3564C57.5314 64.7137 57.7522 65.2049 57.7522 65.7854ZM54.9697 62.0343C54.4398 62.1682 53.9539 62.4362 53.5564 62.7934L47.0198 58.9528C47.064 58.6849 47.1081 58.4617 47.1081 58.1937C47.1081 57.8365 47.064 57.4345 46.9315 57.122L53.3798 53.3261C53.8214 53.7726 54.3514 54.0853 54.9697 54.2639V62.0343ZM43.2214 74.7168C42.3382 74.7168 41.6315 74.0917 41.499 73.2432C41.499 73.1539 41.499 73.0646 41.499 72.9752C41.499 72.2607 41.9407 71.6355 42.559 71.3676C42.7798 71.2782 43.0007 71.2336 43.2214 71.2336C43.4423 71.2336 43.6632 71.2782 43.8839 71.3676C44.5023 71.6355 44.9439 72.2607 44.9439 72.9752C44.9439 73.0646 44.9439 73.1539 44.9439 73.2432C44.8114 74.047 44.0607 74.7168 43.2214 74.7168ZM39.4231 58.9528L32.8866 62.7934C32.4891 62.4362 32.0032 62.1682 31.4732 62.0343V54.2639C32.0916 54.0853 32.6216 53.7726 33.0632 53.3261L39.5115 57.0773C39.4231 57.4345 39.3349 57.7918 39.3349 58.1937C39.3349 58.4617 39.379 58.7296 39.4231 58.9528ZM32.1357 65.7854C32.1357 66.4107 31.8265 66.9465 31.2965 67.2591C31.0315 67.4377 30.7224 67.5271 30.4132 67.5271C29.4415 67.5271 28.6908 66.7232 28.6908 65.7854C28.6908 65.2496 28.9558 64.7137 29.3532 64.4011C29.6624 64.1778 30.0157 64.0438 30.4132 64.0438C30.5015 64.0438 30.634 64.0438 30.7224 64.0884C31.0315 64.1332 31.2524 64.2671 31.4732 64.4457C31.7382 64.6243 31.9149 64.937 32.0474 65.2496C32.0916 65.4282 32.1357 65.6068 32.1357 65.7854C32.1357 65.7408 32.1357 65.7408 32.1357 65.7854ZM28.6465 50.5127C28.6465 49.5302 29.4415 48.7711 30.369 48.7711C30.5899 48.7711 30.8107 48.8157 30.9874 48.905C31.5615 49.1283 31.9591 49.6642 32.0474 50.2894C32.0474 50.3787 32.0474 50.4681 32.0474 50.5573C32.0474 50.6467 32.0474 50.736 32.0474 50.8253C32.0032 51.2719 31.7382 51.6738 31.3849 51.9417C31.2524 52.031 31.1199 52.1203 30.9432 52.2097C30.7665 52.2989 30.5457 52.3437 30.3249 52.3437C29.9274 52.3437 29.5299 52.2097 29.2649 51.9864C28.9115 51.5398 28.6465 51.0486 28.6465 50.5127ZM42.1615 41.6259C42.4707 41.4026 42.8239 41.2686 43.2214 41.2686C43.6189 41.2686 44.0164 41.4026 44.2814 41.6259C44.6348 41.8939 44.8556 42.2958 44.8998 42.7423C44.8998 42.8317 44.8998 42.921 44.8998 43.0103C44.8998 43.5461 44.6348 44.082 44.2373 44.3947C44.1048 44.4839 43.9723 44.5733 43.7957 44.6626C43.6189 44.7519 43.3982 44.7966 43.1773 44.7966C42.9564 44.7966 42.7357 44.7519 42.559 44.6626C42.3823 44.6179 42.2498 44.5286 42.1173 44.3947C41.7198 44.082 41.4548 43.5909 41.4548 43.0103C41.4548 42.921 41.4548 42.8317 41.4548 42.7423C41.5873 42.2958 41.8082 41.8939 42.1615 41.6259ZM44.9439 58.2384C44.9439 58.7743 44.6789 59.2209 44.2814 59.5334C44.1932 59.5781 44.1048 59.6674 44.0164 59.712C43.7514 59.846 43.4864 59.9354 43.1773 59.9354C42.8682 59.9354 42.6032 59.846 42.3823 59.712C42.294 59.6674 42.2057 59.6228 42.1173 59.5334C41.7198 59.2209 41.4548 58.7296 41.4548 58.1937V58.149C41.4548 57.9704 41.4548 57.8365 41.499 57.7025C41.5873 57.3452 41.8082 57.0326 42.0732 56.7647C42.2498 56.6307 42.4707 56.4967 42.7357 56.4521C42.8682 56.4074 43.0007 56.4074 43.1773 56.4074C43.3539 56.4074 43.4864 56.4074 43.6189 56.4521C43.8398 56.4967 44.0607 56.6307 44.2373 56.7647C44.5023 56.988 44.7232 57.3006 44.8114 57.6579C44.8556 57.7918 44.8556 57.9704 44.8556 58.149C44.9439 58.1937 44.9439 58.2384 44.9439 58.2384ZM52.2756 49.5749C52.1873 49.8875 52.1431 50.2 52.1431 50.5127C52.1431 50.8253 52.1873 51.1825 52.2756 51.4951L45.7831 55.291C45.3414 54.8891 44.8556 54.6212 44.2814 54.4425V46.7615C44.8998 46.5828 45.4298 46.2703 45.8715 45.8236L52.2756 49.5749ZM36.5082 24.3436C36.5082 18.5828 41.499 14.4297 43.2214 13.1793C44.9439 14.4297 49.9347 18.5828 49.9347 24.3436C49.9347 29.1666 46.4015 32.6498 44.2814 34.3022V25.1921C44.2814 24.6116 43.7957 24.1203 43.2214 24.1203C42.6032 24.1203 42.1615 24.6116 42.1615 25.1921V34.3022C39.9973 32.6498 36.5082 29.1666 36.5082 24.3436ZM40.5273 45.8236C40.969 46.2703 41.5432 46.5828 42.1173 46.7615V54.4425C41.5432 54.6212 41.0573 54.8891 40.6156 55.2464L34.0791 51.4505C34.1673 51.1379 34.2116 50.8253 34.2116 50.5127C34.2116 50.2 34.1673 49.8875 34.0791 49.5749L40.5273 45.8236ZM34.2116 66.4553C34.2557 66.232 34.2557 66.0088 34.2557 65.7854C34.2557 65.3835 34.2116 64.9816 34.0791 64.5797L40.439 60.8732C40.8806 61.3644 41.499 61.7216 42.1615 61.9449V69.224C41.5432 69.4026 41.0131 69.7153 40.5273 70.1618L34.2116 66.4553ZM45.9156 70.1618C45.474 69.7153 44.8998 69.4026 44.2814 69.224V61.9449C44.9439 61.7663 45.5623 61.3644 46.004 60.8732L52.3639 64.5797C52.2314 64.937 52.1873 65.3389 52.1873 65.7854C52.1873 66.0088 52.1873 66.232 52.2314 66.4553L45.9156 70.1618ZM67.8222 47.0295C66.4088 47.8333 64.8189 47.6993 63.5821 47.3867L65.7022 46.1363C66.2322 45.8237 66.4088 45.1985 66.0997 44.6626C65.7905 44.1267 65.1722 43.9481 64.6422 44.2607L62.5222 45.5111C62.8314 44.3053 63.538 42.8317 64.9514 41.9832C66.983 40.7774 69.5005 41.5366 70.6488 42.0278C70.4721 43.2336 69.898 45.8237 67.8222 47.0295Z" fill="black"/>
</g>
</g>
<defs>
<clipPath id="clip0_1324_1730">
<rect width="90" height="91" fill="white" transform="translate(0 0.349365)"/>
</clipPath>
<clipPath id="clip1_1324_1730">
<rect width="89.9733" height="90.973" fill="white" transform="translate(0 0.376343)"/>
</clipPath>
</defs>
</svg>
