<svg width="78" height="88" viewBox="0 0 78 88" fill="none" xmlns="http://www.w3.org/2000/svg">
<g clip-path="url(#clip0_358_392)">
<path d="M75.1855 64.2732H32.1924C31.4496 64.2761 30.736 63.9848 30.2081 63.4634C29.6802 62.9419 29.3811 62.2327 29.3764 61.4914L29.3682 24.6913C29.3692 23.7126 29.7593 22.7744 30.4527 22.0824C31.1461 21.3903 32.0862 21.0011 33.0668 21L77.1803 21.03C77.3978 21.03 77.6063 21.1162 77.76 21.2696C77.9138 21.4231 78.0001 21.6312 78.0001 21.8482C78.0001 22.0652 77.9138 22.2733 77.76 22.4267C77.6063 22.5801 77.3978 22.6663 77.1803 22.6663L33.0668 22.6363C32.5211 22.6371 31.9979 22.8538 31.6121 23.2391C31.2264 23.6244 31.0095 24.1467 31.0091 24.6913C31.0033 24.9576 31.0508 25.2224 31.1488 25.4701C31.2469 25.7179 31.3934 25.9436 31.58 26.1341C31.7665 26.3246 31.9893 26.476 32.2352 26.5795C32.4811 26.683 32.7453 26.7365 33.0122 26.7368L75.1868 26.7299C75.9295 26.727 76.643 27.0183 77.1707 27.5398C77.6984 28.0614 77.9972 28.7706 78.0015 29.5117V61.4914C77.9972 62.2328 77.6982 62.9422 77.1702 63.4638C76.6422 63.9853 75.9284 64.2764 75.1855 64.2732ZM31.0078 27.7799L31.016 61.4859C31.0203 61.7934 31.1465 62.0865 31.367 62.3012C31.5875 62.5159 31.8843 62.6347 32.1924 62.6314H75.1855C75.4934 62.6347 75.79 62.5159 76.0103 62.3012C76.2306 62.0864 76.3566 61.7932 76.3605 61.4859V29.5131C76.3566 29.2058 76.2306 28.9126 76.0103 28.6979C75.79 28.4831 75.4934 28.3644 75.1855 28.3676L33.0108 28.3745C32.2991 28.377 31.6024 28.1702 31.0078 27.7799Z" fill="#4866D3"/>
<path d="M77.0531 52.0306H58.7879C58.2347 52.0299 57.7043 51.8103 57.313 51.42C56.9216 51.0297 56.7013 50.5005 56.7002 49.9483V41.4161C56.7009 40.8638 56.9211 40.3342 57.3125 39.9436C57.7039 39.553 58.2345 39.3332 58.7879 39.3325H77.0531C77.2706 39.3325 77.4791 39.4187 77.6328 39.5722C77.7866 39.7256 77.8729 39.9337 77.8729 40.1507C77.8729 40.3677 77.7866 40.5758 77.6328 40.7292C77.4791 40.8827 77.2706 40.9689 77.0531 40.9689H58.7879C58.6691 40.9689 58.5551 41.016 58.4711 41.0999C58.387 41.1837 58.3398 41.2975 58.3398 41.4161V49.9511C58.3402 50.0694 58.3875 50.1829 58.4715 50.2664C58.5556 50.35 58.6693 50.397 58.7879 50.397H77.0531C77.2706 50.397 77.4791 50.4832 77.6328 50.6366C77.7866 50.79 77.8729 50.9981 77.8729 51.2151C77.8729 51.4321 77.7866 51.6402 77.6328 51.7937C77.4791 51.9471 77.2706 52.0333 77.0531 52.0333V52.0306Z" fill="#4866D3"/>
<path d="M63.592 47.1148C64.3836 47.1148 65.0253 46.4744 65.0253 45.6843C65.0253 44.8943 64.3836 44.2539 63.592 44.2539C62.8004 44.2539 62.1587 44.8943 62.1587 45.6843C62.1587 46.4744 62.8004 47.1148 63.592 47.1148Z" fill="#4866D3"/>
<path d="M21.4269 54.4343H10.2449C10.0274 54.4343 9.81891 54.3481 9.66517 54.1947C9.51142 54.0413 9.42505 53.8332 9.42505 53.6162C9.42505 53.3992 9.51142 53.1911 9.66517 53.0376C9.81891 52.8842 10.0274 52.798 10.2449 52.798H19.7873V43.479H30.1838C30.4012 43.479 30.6097 43.5652 30.7635 43.7186C30.9172 43.8721 31.0036 44.0802 31.0036 44.2972C31.0036 44.5142 30.9172 44.7223 30.7635 44.8757C30.6097 45.0291 30.4012 45.1154 30.1838 45.1154H21.4269V54.4343Z" fill="#4866D3"/>
<path d="M30.181 34.7343H22.2152V31.4425H17.0232C16.8057 31.4425 16.5972 31.3563 16.4435 31.2029C16.2897 31.0494 16.2034 30.8413 16.2034 30.6243C16.2034 30.4073 16.2897 30.1992 16.4435 30.0458C16.5972 29.8924 16.8057 29.8062 17.0232 29.8062H23.8549V33.0979H30.181C30.3984 33.0979 30.6069 33.1841 30.7607 33.3376C30.9144 33.491 31.0008 33.6991 31.0008 33.9161C31.0008 34.1331 30.9144 34.3412 30.7607 34.4946C30.6069 34.6481 30.3984 34.7343 30.181 34.7343Z" fill="#4866D3"/>
<path d="M66.8491 77.1608C66.6317 77.1608 66.4232 77.0746 66.2695 76.9211C66.1157 76.7677 66.0293 76.5596 66.0293 76.3426V74.2426H56.6904V63.4495C56.6904 63.2325 56.7768 63.0244 56.9306 62.871C57.0843 62.7175 57.2928 62.6313 57.5102 62.6313C57.7277 62.6313 57.9362 62.7175 58.0899 62.871C58.2437 63.0244 58.33 63.2325 58.33 63.4495V72.6063H67.6689V76.3426C67.6689 76.5596 67.5826 76.7677 67.4288 76.9211C67.2751 77.0746 67.0666 77.1608 66.8491 77.1608Z" fill="#4866D3"/>
<path d="M43.3894 22.3744C43.172 22.3744 42.9634 22.2882 42.8097 22.1347C42.6559 21.9813 42.5696 21.7732 42.5696 21.5562V15.2426H47.4146V10.0608C47.4146 9.84386 47.501 9.63575 47.6547 9.48232C47.8085 9.32888 48.017 9.24268 48.2344 9.24268C48.4518 9.24268 48.6604 9.32888 48.8141 9.48232C48.9678 9.63575 49.0542 9.84386 49.0542 10.0608V16.879H44.2092V21.5562C44.2092 21.7732 44.1228 21.9813 43.9691 22.1347C43.8153 22.2882 43.6068 22.3744 43.3894 22.3744Z" fill="#4866D3"/>
<path d="M12.3819 35.7705C11.3486 35.7713 10.3382 35.4662 9.47862 34.8938C8.61905 34.3214 7.9489 33.5075 7.55296 32.5549C7.15702 31.6023 7.05307 30.5539 7.25427 29.5424C7.45547 28.5308 7.95276 27.6015 8.68326 26.8721C9.41375 26.1427 10.3446 25.6459 11.3581 25.4445C12.3715 25.2432 13.4221 25.3464 14.3768 25.7411C15.3314 26.1357 16.1474 26.8041 16.7214 27.6617C17.2953 28.5192 17.6016 29.5274 17.6013 30.5587C17.5995 31.94 17.0491 33.2641 16.0707 34.2411C15.0924 35.218 13.7659 35.768 12.3819 35.7705ZM12.3819 26.982C11.6729 26.9811 10.9796 27.1902 10.3897 27.5828C9.79977 27.9753 9.33978 28.5336 9.06789 29.1871C8.796 29.8406 8.72444 30.5599 8.86226 31.254C9.00009 31.9481 9.3411 32.5858 9.84215 33.0864C10.3432 33.5871 10.9818 33.9281 11.6771 34.0665C12.3724 34.2048 13.0932 34.1342 13.7484 33.8636C14.4035 33.593 14.9634 33.1346 15.3574 32.5463C15.7514 31.958 15.9617 31.2663 15.9617 30.5587C15.9606 29.6112 15.5832 28.7026 14.9122 28.0322C14.2413 27.3618 13.3314 26.9841 12.3819 26.982Z" fill="#4866D3"/>
<path d="M5.222 58.7228C4.18921 58.7226 3.1797 58.4167 2.3211 57.8438C1.46251 57.271 0.793383 56.4569 0.398341 55.5046C0.0032997 54.5522 -0.0999195 53.5044 0.101732 52.4935C0.303383 51.4826 0.800856 50.5541 1.53124 49.8253C2.26162 49.0966 3.19212 48.6003 4.20507 48.3994C5.21803 48.1984 6.26796 48.3017 7.2221 48.6962C8.17624 49.0907 8.99174 49.7587 9.5655 50.6157C10.1393 51.4728 10.4455 52.4803 10.4455 53.5111C10.444 54.8931 9.89321 56.2181 8.91389 57.1952C7.93456 58.1724 6.60678 58.7218 5.222 58.7228ZM5.222 49.9357C4.5135 49.9359 3.82098 50.1459 3.23202 50.5389C2.64305 50.9319 2.18408 51.4904 1.91314 52.1438C1.64219 52.7971 1.57144 53.516 1.70983 54.2094C1.84822 54.9029 2.18953 55.5399 2.69061 56.0398C3.19169 56.5397 3.83004 56.88 4.52494 57.0179C5.21985 57.1557 5.94011 57.0849 6.59465 56.8142C7.24919 56.5435 7.80863 56.0853 8.20222 55.4973C8.59582 54.9094 8.80589 54.2182 8.80589 53.5111C8.80481 52.5629 8.42683 51.6539 7.75491 50.9836C7.083 50.3133 6.17205 49.9364 5.222 49.9357Z" fill="#4866D3"/>
<path d="M66.908 86.3008C65.8748 86.3011 64.8647 85.9955 64.0056 85.4229C63.1464 84.8502 62.4767 84.0361 62.0811 83.0836C61.6855 82.131 61.5819 81.0828 61.7833 80.0714C61.9847 79.0601 62.4821 78.1311 63.2125 77.4019C63.943 76.6727 64.8738 76.176 65.887 75.9748C66.9003 75.7735 67.9507 75.8767 68.9052 76.2712C69.8598 76.6657 70.6756 77.3339 71.2497 78.1912C71.8237 79.0486 72.1301 80.0565 72.1301 81.0877C72.129 82.4697 71.5785 83.7948 70.5994 84.7722C69.6204 85.7496 68.2927 86.2994 66.908 86.3008ZM66.908 77.5122C66.199 77.512 65.5059 77.7215 64.9163 78.1145C64.3268 78.5074 63.8672 79.066 63.5958 79.7196C63.3243 80.3732 63.2533 81.0925 63.3915 81.7865C63.5297 82.4804 63.8711 83.1179 64.3724 83.6182C64.8737 84.1185 65.5124 84.4592 66.2077 84.5971C66.9031 84.7351 67.6238 84.6642 68.2787 84.3933C68.9337 84.1224 69.4934 83.6637 69.8871 83.0753C70.2808 82.4869 70.4908 81.7952 70.4905 81.0877C70.4894 80.1397 70.1116 79.2309 69.44 78.5606C68.7684 77.8904 67.8578 77.5133 66.908 77.5122Z" fill="#4866D3"/>
<path d="M48.2329 10.4248C47.1997 10.4251 46.1897 10.1195 45.3305 9.54688C44.4714 8.97422 43.8016 8.16014 43.4061 7.20759C43.0105 6.25503 42.9069 5.20681 43.1083 4.19547C43.3097 3.18414 43.807 2.25511 44.5375 1.52591C45.268 0.796701 46.1987 0.300066 47.212 0.0988057C48.2253 -0.102455 49.2756 0.00070457 50.2302 0.395234C51.1847 0.789763 52.0006 1.45794 52.5746 2.31527C53.1487 3.17259 53.4551 4.18055 53.4551 5.21167C53.454 6.5937 52.9035 7.91885 51.9244 8.89623C50.9453 9.8736 49.6177 10.4233 48.2329 10.4248ZM48.2329 1.63625C47.524 1.63598 46.8309 1.84556 46.2413 2.23848C45.6517 2.6314 45.1922 3.19 44.9207 3.84362C44.6493 4.49725 44.5782 5.21653 44.7165 5.91049C44.8547 6.60444 45.1961 7.24189 45.6974 7.7422C46.1987 8.2425 46.8374 8.58319 47.5327 8.72115C48.228 8.85912 48.9488 8.78817 49.6037 8.51728C50.2586 8.2464 50.8183 7.78774 51.212 7.19933C51.6057 6.61092 51.8157 5.9192 51.8155 5.21167C51.8144 4.26374 51.4366 3.35495 50.765 2.68466C50.0933 2.01437 49.1827 1.63733 48.2329 1.63625Z" fill="#4866D3"/>
<path d="M43.1953 78.757C42.9779 78.757 42.7694 78.6708 42.6156 78.5174C42.4619 78.3639 42.3755 78.1558 42.3755 77.9388V71.1207H47.2192V63.9153C47.2192 63.6983 47.3055 63.4902 47.4593 63.3368C47.613 63.1834 47.8215 63.0972 48.039 63.0972C48.2564 63.0972 48.4649 63.1834 48.6186 63.3368C48.7724 63.4902 48.8588 63.6983 48.8588 63.9153V72.7598H44.0151V77.9416C44.0144 78.1581 43.9277 78.3655 43.774 78.5183C43.6203 78.6712 43.4122 78.757 43.1953 78.757Z" fill="#4866D3"/>
<path d="M43.1965 88C42.1633 88.0003 41.1532 87.6947 40.294 87.122C39.4348 86.5493 38.7651 85.7351 38.3696 84.7825C37.974 83.8299 37.8705 82.7816 38.072 81.7702C38.2735 80.7588 38.771 79.8298 39.5016 79.1006C40.2322 78.3715 41.1631 77.8749 42.1765 77.6738C43.1898 77.4727 44.2402 77.5761 45.1948 77.9708C46.1493 78.3656 46.9651 79.0339 47.5389 79.8915C48.1128 80.749 48.419 81.7571 48.4187 82.7882C48.4169 84.1699 47.8661 85.4945 46.8872 86.4715C45.9082 87.4485 44.581 87.9982 43.1965 88ZM43.1965 79.2115C42.4877 79.2112 41.7946 79.4207 41.2051 79.8136C40.6155 80.2064 40.1559 80.765 39.8845 81.4185C39.613 82.0721 39.5418 82.7913 39.68 83.4852C39.8181 84.1791 40.1593 84.8166 40.6605 85.3169C41.1617 85.8173 41.8002 86.1581 42.4955 86.2962C43.1907 86.4343 43.9114 86.3636 44.5664 86.0929C45.2213 85.8222 45.7811 85.3638 46.175 84.7755C46.5689 84.1873 46.7791 83.4957 46.7791 82.7882C46.778 81.8402 46.4002 80.9312 45.7287 80.2607C45.0571 79.5902 44.1465 79.2129 43.1965 79.2115Z" fill="#4866D3"/>
</g>
<defs>
<clipPath id="clip0_358_392">
<rect width="78" height="88" fill="white"/>
</clipPath>
</defs>
</svg>
