<svg width="88" height="87" viewBox="0 0 88 87" fill="none" xmlns="http://www.w3.org/2000/svg">
<path d="M64.0153 64.8819H24.0756C22.2326 64.8819 21.1758 63.6097 21.1758 61.3912V27.2623C21.1758 27.2295 21.1758 27.1966 21.1758 27.165C21.1758 27.093 21.1758 27.0197 21.1758 26.9465C21.176 26.8798 21.1853 26.8135 21.2035 26.7494C21.3896 24.8139 22.6502 23.6743 24.6556 23.6743H66.8988C67.0823 23.6743 67.2583 23.7475 67.388 23.8778C67.5178 24.0081 67.5907 24.1849 67.5907 24.3692C67.5907 24.5535 67.5178 24.7302 67.388 24.8605C67.2583 24.9908 67.0823 25.064 66.8988 25.064H24.6518C23.2843 25.064 22.5987 25.7437 22.5609 27.1385C22.6414 28.412 23.5384 29.0576 25.228 29.0576H64.4946C65.9364 29.0576 67.3882 30.0582 67.3882 31.9709V61.6805C67.3944 63.6261 66.0747 64.8819 64.0153 64.8819ZM22.5596 29.76V61.395C22.5596 63.496 23.6227 63.496 24.0756 63.496H64.0153C64.7601 63.496 66.0106 63.261 66.0106 61.6843V31.9709C66.0106 30.8465 65.1941 30.4473 64.5009 30.4473H25.228C24.1373 30.4473 23.234 30.2022 22.5596 29.7562V29.76Z" fill="#4D66B0"/>
<path d="M66.6382 53.1832H49.6254C48.1409 53.1832 47.2188 52.3089 47.2188 50.9091V43.6017C47.2188 42.97 47.2188 41.0459 49.6254 41.0459C51.0659 41.0459 66.3576 41.0308 66.3576 41.0308V42.4205C66.3576 42.4205 51.0684 42.4356 49.6254 42.4356C48.775 42.4356 48.6026 42.6315 48.6026 43.6017V50.9028C48.6026 51.3652 48.7284 51.7872 49.6254 51.7872H66.6382C66.8217 51.7872 66.9977 51.8604 67.1275 51.9907C67.2572 52.121 67.3301 52.2977 67.3301 52.482C67.3301 52.6663 67.2572 52.843 67.1275 52.9734C66.9977 53.1037 66.8217 53.1769 66.6382 53.1769V53.1832Z" fill="#4D66B0"/>
<path d="M53.8112 48.2847C54.531 48.2847 55.1145 47.6987 55.1145 46.9758C55.1145 46.253 54.531 45.667 53.8112 45.667C53.0913 45.667 52.5078 46.253 52.5078 46.9758C52.5078 47.6987 53.0913 48.2847 53.8112 48.2847Z" fill="#4D66B0"/>
<path d="M14.2774 17.6302C13.243 17.6304 12.2318 17.3226 11.3716 16.7457C10.5114 16.1688 9.84086 15.3486 9.44484 14.389C9.04882 13.4294 8.94508 12.3734 9.14673 11.3545C9.34837 10.3357 9.84636 9.39976 10.5777 8.66515C11.309 7.93054 12.2409 7.43022 13.2554 7.22747C14.2699 7.02473 15.3215 7.12866 16.2772 7.52612C17.2329 7.92358 18.0497 8.59673 18.6245 9.46042C19.1992 10.3241 19.5059 11.3396 19.5059 12.3783C19.5046 13.7706 18.9533 15.1054 17.9731 16.09C16.9929 17.0746 15.6638 17.6285 14.2774 17.6302ZM14.2774 8.51745C13.5167 8.5172 12.7729 8.74353 12.1403 9.16781C11.5076 9.59209 11.0145 10.1953 10.7232 10.901C10.432 11.6068 10.3557 12.3834 10.5041 13.1327C10.6524 13.882 11.0188 14.5703 11.5567 15.1105C12.0946 15.6507 12.78 16.0186 13.5262 16.1676C14.2723 16.3166 15.0457 16.24 15.7485 15.9475C16.4513 15.655 17.0519 15.1598 17.4744 14.5245C17.8969 13.8892 18.1223 13.1423 18.122 12.3783C18.1207 11.3548 17.7152 10.3735 16.9945 9.64975C16.2738 8.92598 15.2967 8.51878 14.2774 8.51745Z" fill="#4D66B0"/>
<path d="M44.865 10.5028C43.8307 10.5023 42.8198 10.1938 41.9601 9.61642C41.1004 9.03904 40.4305 8.21863 40.0351 7.25894C39.6396 6.29924 39.5364 5.24335 39.7385 4.22475C39.9406 3.20616 40.4388 2.2706 41.1703 1.53637C41.9018 0.802135 42.8337 0.302194 43.8481 0.0997542C44.8625 -0.102685 45.9139 0.00146642 46.8694 0.399042C47.8249 0.796617 48.6415 1.46976 49.216 2.33337C49.7906 3.19698 50.0972 4.21228 50.0972 5.25089C50.0956 6.64369 49.5437 7.97893 48.5627 8.96356C47.5818 9.94819 46.2519 10.5017 44.865 10.5028ZM44.865 1.39C44.1044 1.3905 43.361 1.61747 42.7288 2.04221C42.0967 2.46695 41.6041 3.07038 41.3135 3.77621C41.0228 4.48205 40.9471 5.25858 41.0959 6.00763C41.2446 6.75668 41.6113 7.44461 42.1493 7.98444C42.6874 8.52427 43.3728 8.89175 44.1189 9.04042C44.8649 9.1891 45.6381 9.11229 46.3407 8.8197C47.0433 8.52712 47.6437 8.0319 48.066 7.39666C48.4883 6.76143 48.7136 6.01469 48.7134 5.25089C48.712 4.22667 48.306 3.24485 47.5845 2.52097C46.8629 1.7971 45.8849 1.39034 44.865 1.39Z" fill="#4D66B0"/>
<path d="M76.1841 17.6302C75.1497 17.6304 74.1385 17.3226 73.2783 16.7457C72.4181 16.1688 71.7476 15.3486 71.3516 14.389C70.9556 13.4294 70.8518 12.3734 71.0535 11.3545C71.2551 10.3357 71.7531 9.39976 72.4844 8.66515C73.2158 7.93054 74.1476 7.43022 75.1621 7.22747C76.1767 7.02473 77.2282 7.12866 78.1839 7.52612C79.1396 7.92358 79.9565 8.59673 80.5312 9.46042C81.1059 10.3241 81.4126 11.3396 81.4126 12.3783C81.4113 13.7706 80.8601 15.1054 79.8799 16.09C78.8996 17.0746 77.5705 17.6285 76.1841 17.6302ZM76.1841 8.51745C75.4234 8.5172 74.6796 8.74353 74.047 9.16781C73.4144 9.59209 72.9212 10.1953 72.63 10.901C72.3387 11.6068 72.2625 12.3834 72.4108 13.1327C72.5592 13.882 72.9255 14.5703 73.4634 15.1105C74.0014 15.6507 74.6867 16.0186 75.4329 16.1676C76.179 16.3166 76.9524 16.24 77.6552 15.9475C78.358 15.655 78.9586 15.1598 79.3811 14.5245C79.8036 13.8892 80.029 13.1423 80.0288 12.3783C80.0274 11.3548 79.622 10.3735 78.9012 9.64975C78.1805 8.92598 77.2034 8.51878 76.1841 8.51745Z" fill="#4D66B0"/>
<path d="M76.6233 79.8724C75.5889 79.8724 74.5778 79.5643 73.7177 78.9872C72.8576 78.4101 72.1873 77.5898 71.7915 76.63C71.3957 75.6703 71.2922 74.6143 71.4941 73.5955C71.696 72.5767 72.1942 71.6409 72.9258 70.9064C73.6573 70.172 74.5893 69.6719 75.6038 69.4694C76.6184 69.2669 77.67 69.3711 78.6256 69.7688C79.5811 70.1665 80.3978 70.8398 80.9723 71.7037C81.5468 72.5675 81.8534 73.583 81.8531 74.6218C81.8514 76.014 81.2999 77.3488 80.3194 78.3331C79.339 79.3175 78.0097 79.8711 76.6233 79.8724ZM76.6233 70.7596C75.8627 70.7596 75.1191 70.9861 74.4867 71.4105C73.8542 71.8349 73.3613 72.4381 73.0702 73.1438C72.7791 73.8495 72.7029 74.6261 72.8513 75.3753C72.9997 76.1244 73.366 76.8126 73.9039 77.3527C74.4417 77.8929 75.127 78.2607 75.873 78.4097C76.6191 78.5588 77.3923 78.4823 78.0951 78.19C78.7978 77.8976 79.3985 77.4026 79.8211 76.7675C80.2437 76.1324 80.4692 75.3857 80.4692 74.6218C80.4689 73.5974 80.0637 72.6149 79.3426 71.8903C78.6215 71.1657 77.6435 70.7581 76.6233 70.7571V70.7596Z" fill="#4D66B0"/>
<path d="M46.0361 87.0002C45.0021 87.0002 43.9912 86.6923 43.1315 86.1154C42.2717 85.5385 41.6015 84.7186 41.2057 83.7592C40.81 82.7999 40.7064 81.7442 40.908 80.7257C41.1096 79.7073 41.6075 78.7717 42.3386 78.0373C43.0697 77.303 44.0012 76.8028 45.0153 76.6001C46.0295 76.3973 47.0807 76.5011 48.0361 76.8983C48.9915 77.2956 49.8082 77.9683 50.3828 78.8316C50.9575 79.6949 51.2644 80.7099 51.2646 81.7484C51.2636 83.1407 50.7125 84.4758 49.7322 85.4604C48.7519 86.4451 47.4226 86.9989 46.0361 87.0002ZM46.0361 77.8887C45.2757 77.8887 44.5323 78.1152 43.9 78.5395C43.2677 78.9638 42.775 79.5669 42.484 80.2724C42.1931 80.978 42.117 81.7543 42.2654 82.5033C42.4139 83.2523 42.7802 83.9402 43.318 84.4801C43.8558 85.02 44.541 85.3876 45.2868 85.5365C46.0327 85.6853 46.8058 85.6087 47.5083 85.3162C48.2108 85.0238 48.8111 84.5288 49.2334 83.8937C49.6557 83.2586 49.881 82.512 49.8808 81.7484C49.8791 80.725 49.4735 79.7441 48.7528 79.0206C48.0321 78.2971 47.0552 77.8901 46.0361 77.8887Z" fill="#4D66B0"/>
<path d="M14.7169 79.8724C13.6824 79.8726 12.6711 79.5648 11.8109 78.9878C10.9507 78.4108 10.2802 77.5906 9.88418 76.6309C9.48819 75.6712 9.38452 74.6151 9.58627 73.5962C9.78802 72.5774 10.2861 71.6414 11.0176 70.9069C11.7491 70.1723 12.681 69.6721 13.6956 69.4695C14.7102 69.2669 15.7619 69.371 16.7175 69.7687C17.6732 70.1663 18.49 70.8397 19.0645 71.7035C19.6391 72.5674 19.9456 73.583 19.9454 74.6218C19.9437 76.0138 19.3923 77.3484 18.4121 78.3327C17.432 79.317 16.103 79.8707 14.7169 79.8724ZM14.7169 70.7596C13.9562 70.7594 13.2125 70.9857 12.5799 71.4099C11.9472 71.8341 11.4541 72.4372 11.1628 73.1429C10.8715 73.8486 10.7952 74.6252 10.9435 75.3745C11.0917 76.1237 11.4579 76.812 11.9957 77.3523C12.5335 77.8925 13.2188 78.2605 13.9648 78.4096C14.7109 78.5588 15.4843 78.4823 16.1871 78.1901C16.8899 77.8978 17.4906 77.4028 17.9133 76.7676C18.3359 76.1325 18.5615 75.3857 18.5615 74.6218C18.5612 73.5976 18.1561 72.6153 17.4353 71.8908C16.7145 71.1662 15.7368 70.7584 14.7169 70.7571V70.7596Z" fill="#4D66B0"/>
<path d="M82.7701 50.0374C81.7357 50.0377 80.7244 49.7299 79.8642 49.1529C79.004 48.576 78.3335 47.7559 77.9375 46.7962C77.5415 45.8366 77.4377 44.7806 77.6394 43.7617C77.841 42.7429 78.339 41.807 79.0704 41.0724C79.8017 40.3378 80.7336 39.8374 81.7481 39.6347C82.7626 39.432 83.8142 39.5359 84.7699 39.9333C85.7256 40.3308 86.5424 41.004 87.1171 41.8676C87.6918 42.7313 87.9986 43.7468 87.9986 44.7856C87.9973 46.1778 87.446 47.5127 86.4658 48.4973C85.4856 49.4819 84.1565 50.0358 82.7701 50.0374ZM82.7701 40.9247C82.0093 40.9244 81.2656 41.1508 80.6329 41.575C80.0003 41.9993 79.5072 42.6025 79.2159 43.3083C78.9247 44.014 78.8484 44.7907 78.9968 45.54C79.1451 46.2893 79.5114 46.9776 80.0494 47.5178C80.5873 48.058 81.2727 48.4258 82.0188 48.5748C82.765 48.7238 83.5384 48.6472 84.2412 48.3547C84.944 48.0623 85.5446 47.567 85.9671 46.9317C86.3896 46.2964 86.615 45.5495 86.6147 44.7856C86.6134 43.762 86.2079 42.7807 85.4872 42.057C84.7665 41.3332 83.7893 40.926 82.7701 40.9247Z" fill="#4D66B0"/>
<path d="M6.22858 50.0374C5.19418 50.0377 4.18293 49.7299 3.32274 49.1529C2.46254 48.576 1.79204 47.7559 1.39602 46.7962C0.999995 45.8366 0.896246 44.7806 1.0979 43.7617C1.29954 42.7429 1.79753 41.807 2.52888 41.0724C3.26022 40.3378 4.19207 39.8374 5.20658 39.6347C6.22109 39.432 7.27269 39.5359 8.22838 39.9333C9.18407 40.3308 10.0009 41.004 10.5756 41.8676C11.1503 42.7313 11.4571 43.7468 11.4571 44.7856C11.4558 46.1778 10.9045 47.5127 9.9243 48.4973C8.94409 49.4819 7.61497 50.0358 6.22858 50.0374ZM6.22858 40.9247C5.46783 40.9244 4.72409 41.1508 4.09144 41.575C3.4588 41.9993 2.96566 42.6025 2.67442 43.3083C2.38318 44.014 2.30691 44.7907 2.45526 45.54C2.60362 46.2893 2.96994 46.9776 3.50787 47.5178C4.0458 48.058 4.73119 48.4258 5.47734 48.5748C6.22349 48.7238 6.99687 48.6472 7.69966 48.3547C8.40246 48.0623 9.0031 47.567 9.4256 46.9317C9.84809 46.2964 10.0735 45.5495 10.0732 44.7856C10.0719 43.762 9.66641 42.7807 8.94568 42.057C8.22496 41.3332 7.24783 40.926 6.22858 40.9247Z" fill="#4D66B0"/>
<path d="M6.22877 40.9243C6.16851 40.9242 6.1085 40.9166 6.05012 40.9016C5.87454 40.8533 5.72492 40.7376 5.63359 40.5794C5.54226 40.4213 5.51654 40.2334 5.562 40.0564L11.8523 16.3946C11.8731 16.3036 11.912 16.2178 11.9665 16.1423C12.0211 16.0668 12.0903 16.0031 12.1699 15.955C12.2495 15.9068 12.3379 15.8753 12.4299 15.8623C12.5219 15.8492 12.6156 15.855 12.7054 15.8791C12.7951 15.9032 12.8792 15.9452 12.9524 16.0026C13.0256 16.06 13.0866 16.1317 13.1317 16.2132C13.1768 16.2948 13.205 16.3847 13.2148 16.4775C13.2245 16.5703 13.2155 16.6641 13.1884 16.7534L6.89806 40.4152C6.8577 40.5621 6.77028 40.6916 6.6493 40.7836C6.52832 40.8756 6.38053 40.9251 6.22877 40.9243Z" fill="#4D66B0"/>
<path d="M18.5201 11.3841C18.3484 11.3846 18.1826 11.321 18.055 11.2056C17.9274 11.0902 17.8472 10.9313 17.8297 10.7597C17.8123 10.5882 17.859 10.4163 17.9608 10.2774C18.0626 10.1385 18.2122 10.0426 18.3804 10.0083L40.1877 5.45255C40.2766 5.43397 40.3684 5.43316 40.4576 5.45019C40.5469 5.46721 40.632 5.50172 40.708 5.55176C40.784 5.60179 40.8494 5.66637 40.9005 5.7418C40.9517 5.81723 40.9875 5.90204 41.006 5.99138C41.0245 6.08072 41.0253 6.17285 41.0084 6.2625C40.9914 6.35215 40.9571 6.43757 40.9072 6.51389C40.8574 6.5902 40.7931 6.65591 40.718 6.70727C40.6429 6.75863 40.5584 6.79462 40.4695 6.81321L18.6635 11.3689C18.6163 11.379 18.5683 11.3841 18.5201 11.3841Z" fill="#4D66B0"/>
<path d="M71.5017 11.0902C71.4488 11.0898 71.3961 11.0839 71.3444 11.0725L49.2453 5.92801C49.0711 5.8821 48.9215 5.76976 48.8285 5.61487C48.7354 5.45998 48.7062 5.27475 48.747 5.09854C48.7878 4.92234 48.8954 4.76906 49.0469 4.67128C49.1985 4.5735 49.3821 4.53894 49.5586 4.57493L71.6577 9.71814C71.8234 9.75643 71.9693 9.85468 72.0675 9.99412C72.1657 10.1336 72.2093 10.3045 72.19 10.4741C72.1707 10.6438 72.0899 10.8004 71.9629 10.9141C71.836 11.0277 71.6718 11.0904 71.5017 11.0902Z" fill="#4D66B0"/>
<path d="M81.745 40.7781C81.5826 40.7776 81.4256 40.72 81.3012 40.6152C81.1768 40.5104 81.093 40.365 81.0644 40.2045L76.9468 16.9823C76.9146 16.8009 76.9555 16.6141 77.0604 16.4629C77.1654 16.3117 77.3259 16.2086 77.5066 16.1763C77.6873 16.144 77.8733 16.185 78.0239 16.2905C78.1744 16.3959 78.2771 16.5571 78.3092 16.7385L82.4294 39.9607C82.4455 40.0505 82.4438 40.1427 82.4244 40.2319C82.405 40.3211 82.3682 40.4055 82.3162 40.4804C82.2641 40.5553 82.1979 40.6191 82.1213 40.6683C82.0446 40.7174 81.9591 40.7508 81.8696 40.7667C81.8285 40.7744 81.7868 40.7782 81.745 40.7781Z" fill="#4D66B0"/>
<path d="M77.9419 70.7568C77.8967 70.7565 77.8517 70.7519 77.8073 70.7429C77.6273 70.7072 77.4688 70.6012 77.3667 70.4481C77.2645 70.2951 77.2271 70.1075 77.2626 69.9268L81.2972 49.3767C81.3355 49.1987 81.4419 49.0429 81.5934 48.9428C81.745 48.8428 81.9296 48.8065 82.1075 48.8418C82.2854 48.877 82.4425 48.9811 82.5448 49.1314C82.6471 49.2818 82.6866 49.4665 82.6546 49.6458L78.6175 70.1997C78.5857 70.3563 78.5012 70.4972 78.3782 70.5987C78.2552 70.7001 78.1011 70.756 77.9419 70.7568Z" fill="#4D66B0"/>
<path d="M50.5727 82.4442C50.4036 82.4443 50.2403 82.3822 50.1137 82.2697C49.9871 82.1571 49.9059 82.0019 49.8854 81.8334C49.865 81.6648 49.9067 81.4946 50.0028 81.3548C50.0988 81.215 50.2424 81.1154 50.4066 81.0747L72.068 75.7104C72.2452 75.6691 72.4315 75.6995 72.5866 75.795C72.7416 75.8906 72.853 76.0437 72.8965 76.2211C72.94 76.3985 72.9121 76.586 72.819 76.7429C72.7259 76.8999 72.5749 77.0137 72.3988 77.0597L50.7388 82.424C50.6844 82.4375 50.6287 82.4443 50.5727 82.4442Z" fill="#4D66B0"/>
<path d="M41.4993 82.4444C41.4463 82.4443 41.3935 82.4379 41.342 82.4254L19.0957 77.2089C19.0072 77.1882 18.9235 77.1502 18.8496 77.097C18.7757 77.0438 18.713 76.9765 18.6649 76.8989C18.6169 76.8214 18.5846 76.7351 18.5698 76.645C18.555 76.5549 18.558 76.4628 18.5786 76.3738C18.5993 76.2849 18.6372 76.2009 18.6902 76.1267C18.7431 76.0525 18.8101 75.9895 18.8873 75.9413C18.9646 75.893 19.0505 75.8606 19.1402 75.8457C19.2299 75.8308 19.3217 75.8339 19.4102 75.8546L41.6565 81.0724C41.8224 81.1107 41.9684 81.209 42.0666 81.3486C42.1647 81.4882 42.2083 81.6592 42.1888 81.829C42.1693 81.9988 42.0883 82.1554 41.9611 82.2689C41.8339 82.3824 41.6695 82.4449 41.4993 82.4444Z" fill="#4D66B0"/>
<path d="M11.6457 71.5312C11.4915 71.5321 11.3414 71.4813 11.2192 71.3867C11.097 71.2922 11.0098 71.1594 10.9714 71.0094L5.56173 49.513C5.53685 49.4237 5.53002 49.3303 5.54162 49.2384C5.55322 49.1464 5.58303 49.0577 5.6293 48.9775C5.67556 48.8973 5.73733 48.8272 5.81099 48.7713C5.88464 48.7154 5.96869 48.6749 6.05818 48.6521C6.14766 48.6294 6.24077 48.6248 6.33203 48.6387C6.4233 48.6527 6.51086 48.6848 6.58957 48.7332C6.66828 48.7817 6.73655 48.8454 6.79035 48.9208C6.84414 48.9961 6.88238 49.0815 6.90282 49.1719L12.32 70.6657C12.3424 70.7543 12.3472 70.8465 12.334 70.937C12.3208 71.0274 12.2899 71.1144 12.2432 71.1928C12.1964 71.2712 12.1347 71.3396 12.0615 71.394C11.9883 71.4484 11.9052 71.4877 11.8168 71.5097C11.761 71.5243 11.7034 71.5315 11.6457 71.5312Z" fill="#4D66B0"/>
<path d="M44.8648 24.742C44.6813 24.742 44.5053 24.6688 44.3755 24.5385C44.2457 24.4082 44.1729 24.2315 44.1729 24.0472V9.80765C44.1729 9.62336 44.2457 9.44662 44.3755 9.31631C44.5053 9.186 44.6813 9.11279 44.8648 9.11279C45.0483 9.11279 45.2243 9.186 45.3541 9.31631C45.4838 9.44662 45.5567 9.62336 45.5567 9.80765V24.0472C45.5567 24.2315 45.4838 24.4082 45.3541 24.5385C45.2243 24.6688 45.0483 24.742 44.8648 24.742Z" fill="#4D66B0"/>
<path d="M22.4577 25.078C22.3499 25.0781 22.2436 25.0529 22.1473 25.0045C22.0509 24.956 21.9672 24.8855 21.9028 24.7987L16.0478 16.9026C15.9423 16.7546 15.8988 16.571 15.9267 16.3911C15.9546 16.2113 16.0517 16.0496 16.197 15.9408C16.3424 15.8321 16.5245 15.785 16.7041 15.8096C16.8837 15.8343 17.0464 15.9287 17.1574 16.0726L23.0124 23.9687C23.0894 24.0719 23.1361 24.1946 23.1475 24.323C23.1589 24.4514 23.1344 24.5805 23.0767 24.6957C23.0191 24.8109 22.9307 24.9077 22.8213 24.9752C22.712 25.0427 22.586 25.0783 22.4577 25.078Z" fill="#4D66B0"/>
<path d="M20.9516 45.4801H10.7613C10.5778 45.4801 10.4018 45.4069 10.272 45.2766C10.1422 45.1462 10.0693 44.9695 10.0693 44.7852C10.0693 44.6009 10.1422 44.4242 10.272 44.2939C10.4018 44.1635 10.5778 44.0903 10.7613 44.0903H20.9516C21.1351 44.0903 21.3111 44.1635 21.4408 44.2939C21.5706 44.4242 21.6435 44.6009 21.6435 44.7852C21.6435 44.9695 21.5706 45.1462 21.4408 45.2766C21.3111 45.4069 21.1351 45.4801 20.9516 45.4801Z" fill="#4D66B0"/>
<path d="M17.6065 71.6105C17.4725 71.6115 17.3412 71.5729 17.2291 71.4993C17.1526 71.45 17.0865 71.3861 17.0346 71.3112C16.9827 71.2363 16.946 71.1518 16.9266 71.0627C16.9072 70.9735 16.9055 70.8814 16.9215 70.7916C16.9376 70.7017 16.9711 70.616 17.0202 70.5392L21.5367 63.4845C21.6359 63.3293 21.7925 63.2202 21.9719 63.1809C22.1513 63.1417 22.3389 63.1757 22.4934 63.2754C22.6479 63.3751 22.7566 63.5323 22.7957 63.7125C22.8347 63.8927 22.8009 64.081 22.7016 64.2362L18.1852 71.2909C18.123 71.3884 18.0374 71.4688 17.9363 71.5246C17.8353 71.5805 17.7218 71.61 17.6065 71.6105Z" fill="#4D66B0"/>
<path d="M45.2071 77.8315C45.0237 77.8311 44.8478 77.7578 44.7182 77.6276C44.5885 77.4973 44.5155 77.3208 44.5151 77.1366V64.1958C44.5151 64.0115 44.588 63.8348 44.7178 63.7045C44.8476 63.5742 45.0236 63.501 45.2071 63.501C45.3906 63.501 45.5666 63.5742 45.6963 63.7045C45.8261 63.8348 45.899 64.0115 45.899 64.1958V77.1316C45.8997 77.2232 45.8823 77.3141 45.8478 77.399C45.8133 77.4839 45.7624 77.5611 45.6981 77.6262C45.6338 77.6912 45.5573 77.7429 45.473 77.7781C45.3887 77.8133 45.2984 77.8315 45.2071 77.8315Z" fill="#4D66B0"/>
<path d="M72.8092 72.2827C72.7078 72.2825 72.6077 72.2597 72.5162 72.216C72.4246 72.1723 72.3438 72.1088 72.2795 72.03L65.7061 64.1744C65.588 64.0332 65.5306 63.8506 65.5466 63.6668C65.5625 63.4831 65.6504 63.3132 65.7911 63.1946C65.9317 63.076 66.1135 63.0184 66.2965 63.0344C66.4794 63.0504 66.6486 63.1387 66.7667 63.2799L73.3388 71.1356C73.4221 71.237 73.4751 71.36 73.4915 71.4904C73.508 71.6207 73.4873 71.7531 73.4318 71.8722C73.3764 71.9912 73.2884 72.092 73.1782 72.1629C73.068 72.2338 72.9401 72.2718 72.8092 72.2726V72.2827Z" fill="#4D66B0"/>
<path d="M78.2336 45.7418H66.7852C66.6017 45.7418 66.4257 45.6686 66.2959 45.5383C66.1662 45.4079 66.0933 45.2312 66.0933 45.0469C66.0933 44.8626 66.1662 44.6859 66.2959 44.5556C66.4257 44.4253 66.6017 44.3521 66.7852 44.3521H78.2336C78.4171 44.3521 78.5931 44.4253 78.7228 44.5556C78.8526 44.6859 78.9255 44.8626 78.9255 45.0469C78.9255 45.2312 78.8526 45.4079 78.7228 45.5383C78.5931 45.6686 78.4171 45.7418 78.2336 45.7418Z" fill="#4D66B0"/>
<path d="M66.8947 25.0643C66.7633 25.0648 66.6345 25.0275 66.5234 24.9571C66.4123 24.8866 66.3235 24.7857 66.2675 24.6663C66.2115 24.5469 66.1906 24.414 66.2072 24.2831C66.2238 24.1522 66.2773 24.0287 66.3613 23.9273L73.1108 15.7153C73.2276 15.5731 73.3958 15.4832 73.5786 15.4656C73.7613 15.4479 73.9435 15.5039 74.0852 15.6212C74.2268 15.7385 74.3162 15.9074 74.3338 16.0909C74.3514 16.2744 74.2957 16.4574 74.1789 16.5997L67.4281 24.8116C67.3633 24.8908 67.2819 24.9545 67.1897 24.9981C67.0974 25.0418 66.9967 25.0644 66.8947 25.0643Z" fill="#4D66B0"/>
</svg>
