<svg width="75" height="88" viewBox="0 0 75 88" fill="none" xmlns="http://www.w3.org/2000/svg">
<path d="M3.95948 21.9291C3.81948 21.9185 3.68222 21.8626 3.54497 21.8067C3.16207 21.5503 3.05237 21.0421 3.30913 20.6753C7.32257 14.8227 12.8855 10.0879 19.4033 6.99363C26.0942 3.75346 33.6329 2.37295 41.1932 2.94826C52.0203 3.77217 62.2781 8.93833 70.0549 17.506C70.3623 17.8475 70.332 18.3451 69.9846 18.6595C69.6387 18.9513 69.1253 18.9122 68.7946 18.5689C61.3266 10.3202 51.4777 5.36695 41.094 4.57678C26.6268 3.47587 12.6796 10.0041 4.70626 21.5997C4.52777 21.836 4.23949 21.9504 3.95948 21.9291Z" fill="#4866D3"/>
<path d="M69.3483 18.8209L58.9322 18.0203C58.463 17.9843 58.1098 17.5879 58.1375 17.1285C58.1652 16.6692 58.5627 16.3305 59.0319 16.3666L68.627 17.1041L69.192 7.73281C69.2197 7.27343 69.6172 6.93478 70.0864 6.97084C70.5556 7.00691 70.9088 7.40326 70.8811 7.86264L70.2662 18.0608C70.1916 18.5166 69.7941 18.8552 69.3483 18.8209Z" fill="#4866D3"/>
<path d="M33.9875 83.7806C27.2196 83.2392 20.8521 81.2061 15.0659 77.7865C9.55253 74.5026 4.75183 69.9792 1.22118 64.6704C0.964299 64.286 1.06617 63.7938 1.45696 63.5521C1.84774 63.3105 2.35682 63.4194 2.6137 63.8039C9.72168 74.4251 21.2094 81.1209 34.1151 82.1533C50.2648 83.4452 65.4914 75.3383 72.8756 61.4869C73.0884 61.0945 73.5667 60.9508 74 61.1447C74.4085 61.3593 74.5662 61.8268 74.3753 62.2437C66.6472 76.7044 50.814 85.1266 33.9875 83.7806Z" fill="#4866D3"/>
<path d="M1.41679 73.4421C0.947512 73.4042 0.595389 73.0067 0.624511 72.5476L1.14143 64.3991C1.17055 63.94 1.56927 63.6031 2.03854 63.6409L10.3681 64.3132C10.8374 64.3511 11.1895 64.7486 11.1604 65.2077C11.1313 65.6668 10.7326 66.0037 10.2633 65.9659L2.75493 65.3599L2.28898 72.705C2.26131 73.1411 1.8626 73.4781 1.41679 73.4421Z" fill="#4866D3"/>
<path d="M36.4393 16.0337C31.8462 16.0337 27.7183 16.9639 24.695 18.4756C21.6135 19.9872 19.5786 22.1966 19.5786 24.7548C19.5786 33.7084 19.5786 43.5341 19.5786 52.6621C19.5786 55.2203 21.6135 57.4297 24.695 58.9413C27.7183 60.453 31.8462 61.3832 36.4393 61.3832C40.3929 61.3832 43.9976 60.6855 46.8465 59.5227C49.1139 60.7437 51.7303 61.3832 54.4629 61.3832C63.4746 61.3832 70.7422 54.1157 70.7422 45.1039C70.7422 36.0921 63.4746 28.8246 54.4629 28.8246C54.0559 28.8246 53.6489 28.8246 53.3 28.8827C53.3 25.9176 53.3 27.0804 53.3 24.7548C53.3 22.1966 51.2651 19.9872 48.1837 18.4756C45.1604 16.9639 41.0324 16.0337 36.4393 16.0337ZM36.4393 17.1965C40.858 17.1965 44.8697 18.1267 47.6604 19.5221C50.5093 20.9175 52.1372 22.8361 52.1372 24.7548C52.1372 26.6734 50.5093 28.592 47.6604 29.9874C44.8116 31.3828 40.858 32.313 36.4393 32.313C32.0207 32.313 28.009 31.4409 25.1601 29.9874C22.3112 28.592 20.7414 26.6734 20.7414 24.7548C20.7414 22.8361 22.3112 20.9175 25.1601 19.5221C28.009 18.1267 32.0207 17.1965 36.4393 17.1965ZM20.7414 28.0106C21.6135 29.1734 23.0089 30.2199 24.695 31.0339C27.7183 32.5456 31.8462 33.4758 36.4393 33.4758C39.2301 33.4758 41.8464 33.127 44.172 32.4874C42.0208 34.2316 40.3347 36.4991 39.3464 39.1154C38.358 39.2317 37.4277 39.2899 36.4393 39.2899C32.0207 39.2899 28.009 38.3596 25.2182 36.9642C22.3694 35.5689 20.7414 33.7084 20.7414 31.7316V28.0106ZM52.1372 28.0106V28.999C51.7303 29.0571 51.3814 29.1153 50.9744 29.2316C51.3814 28.8246 51.7884 28.4176 52.1372 28.0106ZM54.4629 29.9874C62.8351 29.9874 69.5794 36.7317 69.5794 45.1039C69.5794 53.4761 62.8351 60.2204 54.4629 60.2204C46.0906 60.2204 39.3464 53.4761 39.3464 45.1039C39.3464 36.7317 46.0906 29.9874 54.4629 29.9874ZM20.7414 34.9875C21.6135 36.1503 23.0089 37.1968 24.695 38.0108C27.7183 39.5224 31.8462 40.4527 36.4393 40.4527C37.2533 40.4527 38.0673 40.3945 38.8812 40.3364C38.4161 41.848 38.1835 43.476 38.1835 45.1039C38.1835 45.4527 38.1835 45.8597 38.2417 46.2086C37.6603 46.2667 37.0207 46.2667 36.4393 46.2667C32.0207 46.2667 28.009 45.3365 25.2182 43.9411C22.3694 42.5457 20.7414 40.6852 20.7414 38.7084V34.9875ZM20.7414 41.9643C21.6135 43.1271 23.0089 44.1736 24.695 44.9876C27.7183 46.4993 31.8462 47.4295 36.4393 47.4295C37.0789 47.4295 37.7184 47.4295 38.358 47.3714C38.6487 49.4063 39.2882 51.2668 40.2185 53.011C38.9975 53.1854 37.7766 53.2435 36.4393 53.2435C32.0207 53.2435 28.009 52.3133 25.2182 50.9179C22.4275 49.5226 20.7414 47.6621 20.7414 45.6853V41.9643ZM20.7414 48.9412C21.6135 50.104 23.0089 51.1505 24.695 52.0226C27.7183 53.4761 31.8462 54.4064 36.4393 54.4064C38.0091 54.4064 39.4626 54.2901 40.9161 54.0575C42.1371 55.918 43.765 57.5459 45.6255 58.7669C43.0673 59.6971 39.8696 60.2204 36.4393 60.2204C32.0207 60.2204 28.009 59.2901 25.2182 57.8948C22.4275 56.4994 20.7414 54.6389 20.7414 52.6621V48.9412Z" fill="#4866D3"/>
<path d="M60.8337 41.5275C60.6421 39.4958 58.922 38.8149 56.7484 38.6207V35.8013H55.0664V38.5455C54.6248 38.5455 54.1724 38.554 53.7237 38.5637V35.8013H52.0417L52.0405 38.6183C51.6762 38.6256 51.3179 38.6329 50.9692 38.6329V38.6244L48.6491 38.6231V40.4558C48.6491 40.4558 49.8919 40.4316 49.8705 40.4546C50.5525 40.4546 50.7739 40.8576 50.8382 41.2059V44.4174C50.8858 44.4174 50.9465 44.4198 51.0156 44.4295H50.8382L50.837 48.9287C50.8073 49.1472 50.6811 49.4955 50.2049 49.4968C50.2264 49.5162 48.9824 49.4968 48.9824 49.4968L48.6479 51.5455H50.8382C51.2453 51.5455 51.6465 51.5528 52.0393 51.5552L52.0405 54.4062H53.7213V51.5855C54.182 51.5953 54.6283 51.5989 55.0652 51.5989L55.064 54.4062H56.746V51.5613C59.5743 51.3962 61.5563 50.6692 61.8015 47.9602C62.0003 45.7792 60.9944 44.8046 59.3886 44.4113C60.3659 43.9064 60.9766 43.0143 60.8337 41.5275ZM58.4792 47.6228C58.4792 49.7528 54.9021 49.5113 53.7606 49.5113V45.733C54.9021 45.7355 58.4792 45.4017 58.4792 47.6228ZM57.6959 42.2934C57.6959 44.2317 54.7105 44.0047 53.7606 44.0059V40.5809C54.7117 40.5809 57.6971 40.2726 57.6959 42.2934Z" fill="#4866D3"/>
<circle cx="15.3148" cy="48.9842" r="12.2909" fill="white" stroke="#4866D3"/>
<path d="M15.418 42.0557V47.3202L19.8676 49.3084L15.418 42.0557Z" fill="#3953B0"/>
<path d="M15.4175 42.0557L10.9673 49.3084L15.4175 47.3202V42.0557Z" fill="#3953B0"/>
<path d="M15.418 52.7207V56.2978L19.8705 50.1377L15.418 52.7207Z" fill="#3953B0"/>
<path d="M15.4175 56.2978V52.7201L10.9673 50.1377L15.4175 56.2978Z" fill="#3953B0"/>
<path d="M15.418 51.891L19.8676 49.3074L15.418 47.3203V51.891Z" fill="#3953B0"/>
<path d="M10.9673 49.3074L15.4175 51.891V47.3203L10.9673 49.3074Z" fill="#3953B0"/>
</svg>
