<?xml version="1.0" encoding="utf-8"?>
<!-- Generator: Adobe Illustrator 26.0.0, SVG Export Plug-In . SVG Version: 6.00 Build 0)  -->
<svg version="1.1" id="Layer_1" xmlns="http://www.w3.org/2000/svg" xmlns:xlink="http://www.w3.org/1999/xlink" x="0px" y="0px"
	 viewBox="0 0 36.9 35.74" style="enable-background:new 0 0 36.9 35.74;" xml:space="preserve">
<style type="text/css">
	.st0{fill:#4D66B0;}
	.st1{fill:none;stroke:#4D66B0;stroke-width:0.728;}
</style>
<path class="st0" d="M23.32,35.74l-21.91,0c-0.86,0-1.4-0.47-1.4-1.21L0,1.37c0-0.34,0-1.36,1.4-1.36C2.24,0.01,23.15,0,23.15,0
	v0.74c0,0-20.91,0.01-21.75,0.01c-0.5,0-0.6,0.1-0.6,0.62v33.16c0,0.25,0.07,0.47,0.6,0.47l21.91,0c0.11,0,0.21,0.04,0.28,0.11
	c0.08,0.07,0.12,0.16,0.12,0.26s-0.04,0.19-0.12,0.26C23.52,35.7,23.42,35.74,23.32,35.74L23.32,35.74z"/>
<path class="st0" d="M23.32,35.74l-21.91,0c-0.86,0-1.4-0.47-1.4-1.21L0,1.37c0-0.34,0-1.36,1.4-1.36C2.24,0.01,23.15,0,23.15,0
	v0.74c0,0-20.91,0.01-21.75,0.01c-0.5,0-0.6,0.1-0.6,0.62v33.16c0,0.25,0.07,0.47,0.6,0.47l21.91,0c0.11,0,0.21,0.04,0.28,0.11
	c0.08,0.07,0.12,0.16,0.12,0.26s-0.04,0.19-0.12,0.26C23.52,35.7,23.42,35.74,23.32,35.74L23.32,35.74z"/>
<path class="st0" d="M13.58,35.74l21.91,0c0.86,0,1.4-0.47,1.4-1.21V1.37c0-0.34,0-1.36-1.4-1.36C34.66,0.01,13.74,0,13.74,0v0.74
	c0,0,20.91,0.01,21.75,0.01c0.5,0,0.6,0.1,0.6,0.62v33.16c0,0.25-0.07,0.47-0.6,0.47l-21.91,0c-0.11,0-0.21,0.04-0.28,0.11
	c-0.08,0.07-0.12,0.16-0.12,0.26s0.04,0.19,0.12,0.26C13.37,35.7,13.47,35.74,13.58,35.74L13.58,35.74z"/>
<path class="st0" d="M13.58,35.74l21.91,0c0.86,0,1.4-0.47,1.4-1.21V1.37c0-0.34,0-1.36-1.4-1.36C34.66,0.01,13.74,0,13.74,0v0.74
	c0,0,20.91,0.01,21.75,0.01c0.5,0,0.6,0.1,0.6,0.62v33.16c0,0.25-0.07,0.47-0.6,0.47l-21.91,0c-0.11,0-0.21,0.04-0.28,0.11
	c-0.08,0.07-0.12,0.16-0.12,0.26s0.04,0.19,0.12,0.26C13.37,35.7,13.47,35.74,13.58,35.74L13.58,35.74z"/>
<path class="st1" d="M0.36,23.72L11.5,13.53l24.97,14.49"/>
<path class="st1" d="M22.5,20.01l6.55-4.97l7.43,4.53"/>
<circle class="st1" cx="29.49" cy="7.84" r="2.8"/>
</svg>
