<svg width="91" height="90" viewBox="0 0 91 90" fill="none" xmlns="http://www.w3.org/2000/svg">
<path d="M45.7436 89.8775C70.4683 89.8775 90.5116 69.8342 90.5116 45.1095C90.5116 20.3849 70.4683 0.341553 45.7436 0.341553C21.0189 0.341553 0.975586 20.3849 0.975586 45.1095C0.975586 69.8342 21.0189 89.8775 45.7436 89.8775Z" fill="#F2892E"/>
<path d="M65.98 39.0597C66.8763 33.1954 62.3175 30.0422 56.0886 27.9382L58.1097 19.9923L53.1769 18.7892L51.2072 26.5253C49.9111 26.2063 48.5809 25.9098 47.2535 25.6132L49.2374 17.8267L44.3046 16.6208L42.2835 24.564C41.2102 24.3234 40.1539 24.0884 39.132 23.8365L39.1377 23.8114L32.3322 22.1466L31.0191 27.3115C31.0191 27.3115 34.6816 28.1341 34.6045 28.1844C36.6028 28.6741 36.9624 29.9695 36.9025 30.9991L34.6016 40.0502C34.7387 40.0838 34.9157 40.1341 35.1155 40.2097L34.5931 40.0838L31.3673 52.7637C31.1218 53.3568 30.5024 54.2494 29.1036 53.9108C29.155 53.9808 25.5181 53.0351 25.5181 53.0351L23.0688 58.5693L29.4918 60.1389C30.6851 60.4326 31.8555 60.7404 33.0059 61.0286L30.9648 69.0641L35.8948 70.2671L37.9159 62.3212C39.2633 62.6765 40.5707 63.0067 41.8496 63.32L39.8342 71.2324L44.7671 72.4355L46.8081 64.4168C55.2237 65.978 61.5496 65.3485 64.213 57.8894C66.3597 51.8852 64.1073 48.4186 59.6798 46.1607C62.9055 45.4333 65.332 43.3545 65.98 39.0597ZM54.7041 54.5543C53.1826 60.5613 42.863 57.313 39.5174 56.4988L42.2293 45.853C45.5749 46.6727 56.2999 48.2927 54.7041 54.5543ZM56.2313 38.973C54.8411 44.4372 46.2543 41.659 43.471 40.9791L45.9261 31.3264C48.7093 32.0063 57.6815 33.2738 56.2313 38.973Z" fill="white"/>
</svg>
